<svg width="24" height="24" viewBox="0 0 24 24" fill="none" xmlns="http://www.w3.org/2000/svg">
<path fill-rule="evenodd" clip-rule="evenodd" d="M2.25 6C2.25 5.80109 2.32902 5.61032 2.46967 5.46967C2.61032 5.32902 2.80109 5.25 3 5.25H21C21.1989 5.25 21.3897 5.32902 21.5303 5.46967C21.671 5.61032 21.75 5.80109 21.75 6C21.75 6.19891 21.671 6.38968 21.5303 6.53033C21.3897 6.67098 21.1989 6.75 21 6.75H3C2.80109 6.75 2.61032 6.67098 2.46967 6.53033C2.32902 6.38968 2.25 6.19891 2.25 6ZM2.25 10C2.25 9.80109 2.32902 9.61032 2.46967 9.46967C2.61032 9.32902 2.80109 9.25 3 9.25H21C21.1989 9.25 21.3897 9.32902 21.5303 9.46967C21.671 9.61032 21.75 9.80109 21.75 10C21.75 10.1989 21.671 10.3897 21.5303 10.5303C21.3897 10.671 21.1989 10.75 21 10.75H3C2.80109 10.75 2.61032 10.671 2.46967 10.5303C2.32902 10.3897 2.25 10.1989 2.25 10ZM2.25 14C2.25 13.8011 2.32902 13.6103 2.46967 13.4697C2.61032 13.329 2.80109 13.25 3 13.25H11C11.1989 13.25 11.3897 13.329 11.5303 13.4697C11.671 13.6103 11.75 13.8011 11.75 14C11.75 14.1989 11.671 14.3897 11.5303 14.5303C11.3897 14.671 11.1989 14.75 11 14.75H3C2.80109 14.75 2.61032 14.671 2.46967 14.5303C2.32902 14.3897 2.25 14.1989 2.25 14ZM2.25 18C2.25 17.8011 2.32902 17.6103 2.46967 17.4697C2.61032 17.329 2.80109 17.25 3 17.25H11C11.1989 17.25 11.3897 17.329 11.5303 17.4697C11.671 17.6103 11.75 17.8011 11.75 18C11.75 18.1989 11.671 18.3897 11.5303 18.5303C11.3897 18.671 11.1989 18.75 11 18.75H3C2.80109 18.75 2.61032 18.671 2.46967 18.5303C2.32902 18.3897 2.25 18.1989 2.25 18Z" fill="#F4F6FD"/>
<path d="M18.875 14.1176C20.529 15.0726 21.355 15.5506 21.477 16.2386C21.5074 16.4109 21.5074 16.5873 21.477 16.7596C21.356 17.4496 20.529 17.9266 18.875 18.8816C17.221 19.8366 16.395 20.3136 15.737 20.0746C15.5727 20.0149 15.42 19.9269 15.286 19.8146C14.75 19.3646 14.75 18.4096 14.75 16.4996C14.75 14.5896 14.75 13.6356 15.286 13.1856C15.42 13.0726 15.573 12.9856 15.737 12.9256C16.394 12.6856 17.221 13.1636 18.875 14.1176Z" fill="#F4F6FD"/>
</svg>
