<svg width="24" height="24" viewBox="0 0 24 24" fill="none" xmlns="http://www.w3.org/2000/svg">
<path d="M10.185 7.63904C10.0729 7.55919 9.9409 7.51175 9.80358 7.50192C9.66627 7.49208 9.52889 7.52023 9.40651 7.58328C9.28413 7.64633 9.18147 7.74185 9.10976 7.85936C9.03806 7.97688 9.00008 8.11187 9 8.24954V15.7495C9.00008 15.8872 9.03806 16.0222 9.10976 16.1397C9.18147 16.2572 9.28413 16.3527 9.40651 16.4158C9.52889 16.4788 9.66627 16.507 9.80358 16.4972C9.9409 16.4873 10.0729 16.4399 10.185 16.36L15.435 12.61C15.5322 12.5407 15.6115 12.4491 15.6661 12.3429C15.7208 12.2367 15.7494 12.119 15.7494 11.9995C15.7494 11.8801 15.7208 11.7624 15.6661 11.6562C15.6115 11.55 15.5322 11.4584 15.435 11.389L10.185 7.63904Z" fill="#F4F6FD"/>
<path d="M0 6C0 5.20435 0.316071 4.44129 0.87868 3.87868C1.44129 3.31607 2.20435 3 3 3H21C21.7956 3 22.5587 3.31607 23.1213 3.87868C23.6839 4.44129 24 5.20435 24 6V18C24 18.7956 23.6839 19.5587 23.1213 20.1213C22.5587 20.6839 21.7956 21 21 21H3C2.20435 21 1.44129 20.6839 0.87868 20.1213C0.316071 19.5587 0 18.7956 0 18V6ZM22.5 6C22.5 5.60218 22.342 5.22064 22.0607 4.93934C21.7794 4.65804 21.3978 4.5 21 4.5H3C2.60218 4.5 2.22064 4.65804 1.93934 4.93934C1.65804 5.22064 1.5 5.60218 1.5 6V18C1.5 18.3978 1.65804 18.7794 1.93934 19.0607C2.22064 19.342 2.60218 19.5 3 19.5H21C21.3978 19.5 21.7794 19.342 22.0607 19.0607C22.342 18.7794 22.5 18.3978 22.5 18V6Z" fill="#F4F6FD"/>
</svg>
