<svg width="24" height="24" viewBox="0 0 24 24" fill="none" xmlns="http://www.w3.org/2000/svg">
<path d="M20.0294 20.7896C20.4894 21.2496 21.1994 20.5396 20.7394 20.0896L16.9894 16.3296C18.3051 14.8743 19.0323 12.9815 19.0294 11.0196C19.0294 6.62957 15.4594 3.05957 11.0694 3.05957C6.67938 3.05957 3.10938 6.62957 3.10938 11.0196C3.10938 15.4096 6.67938 18.9796 11.0694 18.9796C13.0494 18.9796 14.8794 18.2496 16.2794 17.0396L20.0294 20.7896ZM4.10838 11.0196C4.10838 7.17957 7.23838 4.05957 11.0684 4.05957C14.9084 4.05957 18.0284 7.17957 18.0284 11.0196C18.0284 14.8596 14.9084 17.9796 11.0684 17.9796C7.23838 17.9796 4.10838 14.8596 4.10838 11.0196Z" fill="#757575"/>
</svg>
