<svg width="24" height="24" viewBox="0 0 24 24" fill="none" xmlns="http://www.w3.org/2000/svg">
<path d="M15.4163 14.1244L10.9163 17.1244C10.8033 17.1998 10.6719 17.243 10.5363 17.2496C10.4006 17.2562 10.2657 17.2258 10.146 17.1617C10.0263 17.0976 9.92619 17.0022 9.85645 16.8856C9.7867 16.7691 9.74991 16.6358 9.75 16.5V10.5C9.74991 10.3642 9.7867 10.2309 9.85645 10.1144C9.92619 9.99782 10.0263 9.90241 10.146 9.83831C10.2657 9.77421 10.4006 9.74382 10.5363 9.75039C10.6719 9.75696 10.8033 9.80025 10.9163 9.87562L15.4163 12.8756C15.5191 12.9441 15.6035 13.0369 15.6618 13.1458C15.7202 13.2548 15.7507 13.3764 15.7507 13.5C15.7507 13.6236 15.7202 13.7452 15.6618 13.8542C15.6035 13.9631 15.5191 14.0559 15.4163 14.1244ZM11.25 11.9016V15.0938L13.6481 13.5L11.25 11.9016ZM20.25 20.25H3.75C3.35218 20.25 2.97064 20.092 2.68934 19.8107C2.40804 19.5294 2.25 19.1478 2.25 18.75V8.25C2.25 7.85218 2.40804 7.47065 2.68934 7.18934C2.97064 6.90804 3.35218 6.75 3.75 6.75H20.25C20.6478 6.75 21.0294 6.90804 21.3107 7.18934C21.592 7.47065 21.75 7.85218 21.75 8.25V18.75C21.75 19.1478 21.592 19.5294 21.3107 19.8107C21.0294 20.092 20.6478 20.25 20.25 20.25ZM20.25 8.25H3.75V18.75H20.25V8.25ZM21.75 4.5C21.75 4.30109 21.671 4.11032 21.5303 3.96967C21.3897 3.82902 21.1989 3.75 21 3.75H3C2.80109 3.75 2.61032 3.82902 2.46967 3.96967C2.32902 4.11032 2.25 4.30109 2.25 4.5C2.25 4.69891 2.32902 4.88968 2.46967 5.03033C2.61032 5.17098 2.80109 5.25 3 5.25H21C21.1989 5.25 21.3897 5.17098 21.5303 5.03033C21.671 4.88968 21.75 4.69891 21.75 4.5Z" fill="white"/>
<path d="M11.25 11.9016V15.0938L13.6481 13.5L11.25 11.9016Z" fill="white"/>
</svg>
