<svg width="24" height="24" viewBox="0 0 24 24" fill="none" xmlns="http://www.w3.org/2000/svg">
<path d="M12.8354 3.18616C13.6681 2.71199 14.6546 2.58659 15.5794 2.83733C16.5042 3.08808 17.2922 3.69459 17.7713 4.52441C18.2504 5.35424 18.3817 6.33993 18.1364 7.26622C17.8912 8.19251 17.2894 8.98412 16.4624 9.46816L15.7224 9.89416C16.5312 9.86617 17.3262 10.1096 17.9806 10.5856C18.6351 11.0616 19.1115 11.7429 19.3341 12.521C19.5566 13.2991 19.5124 14.1292 19.2086 14.8793C18.9048 15.6294 18.3587 16.2563 17.6574 16.6602L10.6374 20.7132C9.80466 21.1941 8.81492 21.3246 7.88596 21.0758C6.957 20.827 6.16491 20.2194 5.68394 19.3867C5.20297 18.5539 5.07252 17.5641 5.32129 16.6352C5.57005 15.7062 6.17766 14.9141 7.01044 14.4332L7.74944 14.0052C6.94149 14.0316 6.14787 13.7873 5.49459 13.3112C4.84131 12.835 4.36582 12.1543 4.14362 11.3771C3.92141 10.5998 3.96524 9.7706 4.26813 9.02111C4.57102 8.27161 5.11561 7.64479 5.81544 7.24015L12.8354 3.18616Z" stroke="#F4F6FD" stroke-width="1.5" stroke-linejoin="round"/>
<path d="M13.992 11.0164L11.2 9.27138C10.46 8.80838 9.5 9.34139 9.5 10.2134V13.7034C9.5 14.5764 10.46 15.1084 11.2 14.6464L13.992 12.9004C14.152 12.8007 14.2839 12.6619 14.3754 12.4971C14.4669 12.3323 14.5149 12.1469 14.5149 11.9584C14.5149 11.7699 14.4669 11.5845 14.3754 11.4197C14.2839 11.2549 14.152 11.1161 13.992 11.0164Z" fill="#F4F6FD"/>
</svg>
